<svg xmlns="http://www.w3.org/2000/svg" viewBox="0 15.729999542236328 145.24000549316406 29.110000610351562" data-asc="0.885483870967742"><defs/><g><g><g transform="translate(0, 0)"><path d="M0 44.27L0 42.82Q1.69 42.74 2.50 42.48Q3.31 42.22 3.53 41.49Q3.75 40.77 3.75 39.35L3.75 20.65Q3.75 19.19 3.51 18.47Q3.27 17.74 2.46 17.48Q1.65 17.22 0 17.18L0 15.73Q1.77 15.77 3.85 15.81Q5.93 15.85 8.06 15.85Q10.93 15.85 13.04 15.81Q15.16 15.77 16.53 15.73L16.53 17.18Q14.56 17.22 13.59 17.50Q12.62 17.78 12.28 18.51Q11.94 19.23 11.94 20.65L11.94 40.16Q11.94 41.21 12.10 41.75Q12.26 42.30 12.74 42.50Q13.23 42.70 14.27 42.70L14.72 42.70Q16.37 42.70 17.80 42.02Q19.23 41.33 20.46 40.04Q21.69 38.75 22.68 36.98Q23.67 35.20 24.44 32.98L25.97 32.98Q25.69 36.01 25.56 38.83Q25.44 41.65 25.48 44.27Q23.75 44.19 21.27 44.17Q18.79 44.15 15.04 44.15Q10.04 44.15 6.23 44.17Q2.42 44.19 0 44.27ZM37.38 44.84Q34.15 44.84 32.42 42.98Q30.69 41.13 30.69 37.66L30.69 28.35Q30.69 26.45 29.98 25.67Q29.27 24.88 27.62 24.80L27.62 23.35Q28.55 23.39 29.38 23.43Q30.20 23.47 31.13 23.47Q33.15 23.47 34.84 23.33Q36.53 23.19 37.94 22.90L37.94 38.55Q37.94 40.20 38.65 41.05Q39.35 41.90 40.69 41.90Q41.65 41.90 42.48 41.33Q43.31 40.77 43.87 39.64L43.87 41.29Q42.86 42.98 41.23 43.91Q39.60 44.84 37.38 44.84M43.71 44.72L43.71 28.27Q43.71 26.41 43.10 25.65Q42.50 24.88 41.13 24.80L41.13 23.35Q41.98 23.39 42.70 23.43Q43.43 23.47 44.27 23.47Q46.25 23.47 47.92 23.33Q49.60 23.19 50.97 22.90L50.97 39.27Q50.97 41.13 51.65 41.94Q52.34 42.74 54.03 42.82L54.03 44.27Q53.10 44.19 52.30 44.17Q51.49 44.15 50.52 44.15Q48.51 44.15 46.81 44.29Q45.12 44.44 43.71 44.72ZM82.18 44.27L82.18 42.82Q83.19 42.78 83.55 42.16Q83.91 41.53 83.91 39.92L83.91 28.99Q83.91 27.42 83.33 26.57Q82.74 25.73 81.57 25.73Q80.60 25.73 79.68 26.39Q78.75 27.06 78.06 28.67L77.82 27.26Q78.95 24.92 80.81 23.85Q82.66 22.78 84.88 22.78Q87.94 22.78 89.56 24.62Q91.17 26.45 91.17 29.96L91.17 39.92Q91.17 41.49 91.85 42.14Q92.54 42.78 94.27 42.82L94.27 44.27Q93.67 44.23 92.58 44.21Q91.49 44.19 90.24 44.15Q88.99 44.11 87.78 44.11Q86.13 44.11 84.56 44.17Q82.98 44.23 82.18 44.27M55.69 44.27L55.69 42.82Q57.46 42.78 58.10 42.16Q58.75 41.53 58.75 39.92L58.75 28.35Q58.75 26.49 58.06 25.69Q57.38 24.88 55.69 24.80L55.69 23.35Q56.65 23.39 57.46 23.43Q58.27 23.47 59.11 23.47Q61.13 23.47 62.82 23.33Q64.52 23.19 66.01 22.90L66.01 39.92Q66.01 41.53 66.39 42.16Q66.77 42.78 67.78 42.82L67.78 44.27Q66.98 44.23 65.52 44.17Q64.07 44.11 62.50 44.11Q60.69 44.11 58.73 44.17Q56.77 44.23 55.69 44.27M69.60 44.27L69.60 42.82Q70.60 42.78 70.97 42.16Q71.33 41.53 71.33 39.92L71.33 28.99Q71.33 27.42 70.75 26.57Q70.16 25.73 68.99 25.73Q68.02 25.73 67.24 26.31Q66.45 26.90 65.89 28.02L65.85 26.37Q66.85 24.64 68.51 23.71Q70.16 22.78 72.38 22.78Q75.44 22.78 77.02 24.54Q78.59 26.29 78.59 29.68L78.59 39.92Q78.59 41.49 79.01 42.14Q79.44 42.78 80.48 42.82L80.48 44.27Q79.72 44.23 78.21 44.17Q76.69 44.11 75.16 44.11Q73.59 44.11 72.00 44.17Q70.40 44.23 69.60 44.27ZM106.65 44.84Q103.51 44.84 101.21 43.53Q98.91 42.22 97.66 39.76Q96.41 37.30 96.41 33.87Q96.41 30.16 97.80 27.70Q99.19 25.24 101.67 24.01Q104.15 22.78 107.38 22.78Q110.36 22.78 112.36 23.81Q114.35 24.84 115.36 27.02Q116.37 29.19 116.29 32.58L101.77 32.58L101.69 31.13L110.24 31.13Q110.32 29.15 110 27.60Q109.68 26.05 109.03 25.18Q108.39 24.31 107.30 24.31Q105.93 24.31 105.02 25.97Q104.11 27.62 103.91 31.37L103.99 31.57Q103.95 31.90 103.95 32.26Q103.95 32.62 103.95 33.23Q103.95 37.06 105.34 39.23Q106.73 41.41 109.40 41.41Q111.41 41.41 112.76 40.42Q114.11 39.44 115.12 37.42L116.49 38.15Q115.16 41.49 112.70 43.17Q110.24 44.84 106.65 44.84ZM132.82 44.27L132.82 42.82Q134.03 42.78 134.48 42.16Q134.92 41.53 134.92 39.92L134.92 29.07Q134.92 27.42 134.21 26.57Q133.51 25.73 132.18 25.73Q131.17 25.73 130.36 26.29Q129.56 26.85 128.99 28.02L128.95 26.37Q129.96 24.64 131.61 23.71Q133.27 22.78 135.48 22.78Q138.75 22.78 140.46 24.64Q142.18 26.49 142.18 29.96L142.18 39.92Q142.18 41.49 142.84 42.14Q143.51 42.78 145.24 42.82L145.24 44.27Q144.64 44.23 143.57 44.21Q142.50 44.19 141.23 44.15Q139.96 44.11 138.75 44.11Q137.02 44.11 135.34 44.17Q133.67 44.23 132.82 44.27M118.79 44.27L118.79 42.82Q120.56 42.78 121.21 42.16Q121.85 41.53 121.85 39.92L121.85 28.35Q121.85 26.49 121.17 25.69Q120.48 24.88 118.79 24.80L118.79 23.35Q119.72 23.39 120.52 23.43Q121.33 23.47 122.22 23.47Q124.27 23.47 125.97 23.33Q127.66 23.19 129.11 22.90L129.11 39.92Q129.11 41.53 129.56 42.16Q130 42.78 131.25 42.82L131.25 44.27Q130.36 44.23 128.83 44.17Q127.30 44.11 125.65 44.11Q123.79 44.11 121.83 44.17Q119.88 44.23 118.79 44.27Z"/></g></g></g></svg>